<svg width="763" height="162" viewBox="0 0 763 162" fill="none" xmlns="http://www.w3.org/2000/svg">
<path d="M81.2158 20.6418C86.6885 20.6418 91.125 16.1879 91.125 10.6937C91.125 5.19952 86.6885 0.745605 81.2158 0.745605C75.7431 0.745605 71.3066 5.19952 71.3066 10.6937C71.3066 16.1879 75.7431 20.6418 81.2158 20.6418Z" fill="#00A859"/>
<path fill-rule="evenodd" clip-rule="evenodd" d="M86.8981 27.2626L87.9201 33.1035C87.9201 33.1035 85.706 35.2102 85.0087 35.8523C85.0938 36.5973 88.6106 53.5005 88.6106 53.5005C88.6106 53.5005 89.1197 55.7153 87.3033 57.8673C84.2218 60.9408 81.1434 63.5491 81.1434 63.5491C79.025 61.6654 76.0739 58.8674 75.1317 57.8813C74.4672 57.1148 73.2192 55.7655 73.8236 53.4294C74.4381 50.5135 77.721 35.8274 77.721 35.8274L74.5723 33.1258L75.4851 27.2626L69.2318 22.2321C68.838 21.915 67.4226 20.2705 64.5271 21.526C61.6312 22.782 57.0251 23.4604 47.5661 29.0911C41.9977 32.7044 44.7821 36.5221 44.7821 36.5221C44.7821 36.5221 46.4451 41.0042 51.0315 38.6976C55.6176 36.3909 57.6158 35.1471 58.6201 36.2122C58.9689 37.501 58.6798 42.022 58.6518 42.5818C58.6238 43.1419 58.6681 50.6405 62.0526 53.4974C65.4833 57.2229 78.9093 72.2401 81.3656 71.5167C82.8211 71.9442 94.4443 60.7386 101.184 53.4271C102.781 50.7902 103.957 45.9316 103.606 43.089C103.596 38.919 103.595 38.0142 103.593 37.3317C103.786 37.219 103.078 35.0314 105.597 36.0825C108.116 37.1332 110.592 38.6938 113.311 39.3012C117.045 39.0623 118.592 35.5092 117.581 32.1749C115.726 27.122 102.401 23.3043 97.4819 21.4448C95.1961 20.5672 94.1703 21.5551 92.9798 22.3666C90.6141 24.1717 86.8981 27.2626 86.8981 27.2626Z" fill="#00A859"/>
<path fill-rule="evenodd" clip-rule="evenodd" d="M128.104 26.1374C128.104 26.1374 115.208 11.92 96.2105 10.2056C96.1099 11.8168 95.9229 14.8068 95.9229 14.8068C95.9229 14.8068 110.988 17.0934 124.892 28.9505C126.765 27.3106 128.104 26.1374 128.104 26.1374Z" fill="#00A859"/>
<path fill-rule="evenodd" clip-rule="evenodd" d="M34.0693 26.0119C34.0693 26.0119 46.9658 11.7945 65.9636 10.0801C66.0642 11.6913 66.2509 14.6813 66.2509 14.6813C66.2509 14.6813 51.1857 16.9679 37.2819 28.8246C35.4088 27.1847 34.0693 26.0119 34.0693 26.0119Z" fill="#00A859"/>
<path d="M81.2158 161.381C86.6885 161.381 91.125 156.927 91.125 151.432C91.125 145.938 86.6885 141.484 81.2158 141.484C75.7431 141.484 71.3066 145.938 71.3066 151.432C71.3066 156.927 75.7431 161.381 81.2158 161.381Z" fill="#00A859"/>
<path fill-rule="evenodd" clip-rule="evenodd" d="M86.8981 134.863L87.9201 129.022C87.9201 129.022 85.706 126.915 85.0087 126.274C85.0938 125.529 88.6106 108.625 88.6106 108.625C88.6106 108.625 89.1197 106.411 87.3033 104.258C84.2218 101.185 81.1434 98.5765 81.1434 98.5765C79.025 100.461 76.0739 103.258 75.1317 104.245C74.4672 105.011 73.2192 106.36 73.8236 108.697C74.4381 111.612 77.721 126.299 77.721 126.299L74.5723 129L75.4851 134.863L69.2318 139.894C68.838 140.211 67.4226 141.856 64.5271 140.6C61.6312 139.344 57.0251 138.665 47.5661 133.034C41.9977 129.421 44.7821 125.604 44.7821 125.604C44.7821 125.604 46.4451 121.122 51.0315 123.428C55.6176 125.735 57.6158 126.979 58.6201 125.913C58.9689 124.625 58.6798 120.104 58.6518 119.544C58.6238 118.984 58.6681 111.485 62.0526 108.629C65.4833 104.903 78.9093 89.8855 81.3656 90.6093C82.8211 90.1818 94.4443 101.387 101.184 108.698C102.781 111.336 103.957 116.194 103.606 119.037C103.596 123.207 103.595 124.111 103.593 124.794C103.786 124.907 103.078 127.094 105.597 126.043C108.116 124.992 110.592 123.432 113.311 122.824C117.045 123.063 118.592 126.616 117.581 129.951C115.726 135.004 102.401 138.821 97.4819 140.681C95.1961 141.559 94.1703 140.57 92.9798 139.759C90.6141 137.954 86.8981 134.863 86.8981 134.863Z" fill="#00A859"/>
<path fill-rule="evenodd" clip-rule="evenodd" d="M128.104 135.988C128.104 135.988 115.208 150.205 96.2105 151.92C96.1099 150.309 95.9229 147.319 95.9229 147.319C95.9229 147.319 110.988 145.032 124.892 133.175C126.765 134.815 128.104 135.988 128.104 135.988Z" fill="#00A859"/>
<path fill-rule="evenodd" clip-rule="evenodd" d="M34.0693 136.114C34.0693 136.114 46.9658 150.331 65.9636 152.046C66.0642 150.435 66.2509 147.445 66.2509 147.445C66.2509 147.445 51.1857 145.158 37.2819 133.301C35.4088 134.941 34.0693 136.114 34.0693 136.114Z" fill="#00A859"/>
<path d="M20.488 81.0735C20.5004 86.5461 16.0566 90.9927 10.5624 91.0052C5.06821 91.0177 0.604232 86.5913 0.591816 81.1186C0.579401 75.6459 5.02325 71.1994 10.5174 71.1869C16.0116 71.1744 20.4756 75.6008 20.488 81.0735Z" fill="#00A859"/>
<path fill-rule="evenodd" clip-rule="evenodd" d="M27.1217 86.741L32.9652 87.7498C32.9652 87.7498 35.0666 85.5309 35.7073 84.832C36.4522 84.9152 53.3637 88.3938 53.3637 88.3938C53.3637 88.3938 55.5793 88.898 57.7276 87.0767C60.7939 83.9881 63.3953 80.9039 63.3953 80.9039C61.5067 78.7897 58.7019 75.8447 57.7136 74.9051C56.946 74.2422 55.5936 72.9976 53.2586 73.6068C50.3443 74.2282 35.6657 77.5443 35.6657 77.5443L32.9573 74.4016L27.0956 75.3276L22.0511 69.0861C21.7332 68.6927 20.0854 67.2814 21.3345 64.3829C22.5836 61.4844 23.2518 56.8764 28.861 47.4049C32.4618 41.8282 36.2859 44.6039 36.2859 44.6039C36.2859 44.6039 40.7715 46.2567 38.4754 50.8484C36.179 55.4398 34.9397 57.4406 36.0074 58.4426C37.2969 58.7884 41.8173 58.4891 42.377 58.46C42.9368 58.4305 50.4357 58.4577 53.3002 61.8359C57.0336 65.2582 72.0811 78.6498 71.3633 81.1077C71.7938 82.5624 60.6147 94.2113 53.3187 100.967C50.6852 102.57 45.8296 103.758 42.9863 103.412C38.8159 103.413 37.9115 103.413 37.2285 103.413C37.1163 103.606 34.9276 102.902 35.9839 105.419C37.0407 107.936 38.6066 110.409 39.2203 113.127C38.9902 116.861 35.4401 118.417 32.1039 117.412C27.0465 115.569 23.1989 102.253 21.3281 97.3377C20.4452 95.0541 21.4309 94.0257 22.2397 92.8333C24.0395 90.4639 27.1217 86.741 27.1217 86.741Z" fill="#00A859"/>
<path fill-rule="evenodd" clip-rule="evenodd" d="M26.09 127.949C26.09 127.949 11.8434 115.085 10.0859 96.0914C11.6968 95.9875 14.686 95.7939 14.686 95.7939C14.686 95.7939 17.007 110.853 28.8955 124.73C27.2597 126.607 26.09 127.949 26.09 127.949Z" fill="#00A859"/>
<path fill-rule="evenodd" clip-rule="evenodd" d="M25.7509 33.9146C25.7509 33.9146 11.5629 46.8432 9.8916 65.8447C11.5028 65.9415 14.4932 66.1218 14.4932 66.1218C14.4932 66.1218 16.7458 51.0517 28.5712 37.1207C26.9271 35.2518 25.7509 33.9146 25.7509 33.9146Z" fill="#00A859"/>
<path d="M141.306 81.0466C141.294 86.5193 145.737 90.9659 151.232 90.9783C156.726 90.9908 161.19 86.5644 161.202 81.0918C161.215 75.6191 156.771 71.1725 151.277 71.16C145.782 71.1476 141.318 75.574 141.306 81.0466Z" fill="#00A859"/>
<path fill-rule="evenodd" clip-rule="evenodd" d="M134.672 86.7142L128.828 87.7229C128.828 87.7229 126.727 85.504 126.087 84.8052C125.341 84.8883 108.43 88.367 108.43 88.367C108.43 88.367 106.214 88.8712 104.066 87.0498C101 83.9612 98.3985 80.8771 98.3985 80.8771C100.287 78.7628 103.092 75.8182 104.08 74.8782C104.848 74.2153 106.2 72.9707 108.535 73.5803C111.449 74.2013 126.128 77.5175 126.128 77.5175L128.836 74.3748L134.698 75.3008L139.742 69.0593C140.06 68.6662 141.708 67.2545 140.459 64.356C139.21 61.4575 138.542 56.8495 132.932 47.378C129.332 41.8013 125.508 44.577 125.508 44.577C125.508 44.577 121.022 46.2302 123.318 50.8215C125.614 55.4129 126.854 57.4138 125.786 58.4157C124.497 58.7616 119.976 58.4622 119.416 58.4331C118.857 58.4036 111.358 58.4309 108.493 61.8094C104.76 65.2314 89.7124 78.623 90.4301 81.0812C89.9996 82.5355 101.179 94.1844 108.475 100.94C111.108 102.544 115.964 103.731 118.807 103.385C122.978 103.386 123.882 103.386 124.565 103.386C124.677 103.58 126.866 102.875 125.81 105.392C124.753 107.909 123.187 110.382 122.573 113.1C122.803 116.834 126.353 118.39 129.69 117.386C134.747 115.542 138.595 102.226 140.465 97.3109C141.348 95.0273 140.363 93.9989 139.554 92.8068C137.754 90.437 134.672 86.7142 134.672 86.7142Z" fill="#00A859"/>
<path fill-rule="evenodd" clip-rule="evenodd" d="M135.703 127.923C135.703 127.923 149.95 115.059 151.707 96.0645C150.096 95.9606 147.107 95.7671 147.107 95.7671C147.107 95.7671 144.786 110.827 132.897 124.704C134.533 126.58 135.703 127.923 135.703 127.923Z" fill="#00A859"/>
<path fill-rule="evenodd" clip-rule="evenodd" d="M136.043 33.8877C136.043 33.8877 150.231 46.8163 151.902 65.8179C150.291 65.915 147.301 66.0949 147.301 66.0949C147.301 66.0949 145.048 51.0248 133.223 37.0942C134.867 35.2249 136.043 33.8877 136.043 33.8877Z" fill="#00A859"/>
<path d="M231.316 89.8279H227.515C226.008 96.0248 220.844 99.8429 213.958 99.8429C210.3 99.8429 206.858 98.6535 204.275 96.4001C200.617 93.2079 200.331 89.7028 200.331 80.1882C200.331 70.674 200.617 67.1685 204.275 63.9763C206.858 61.7229 210.3 60.5335 213.958 60.5335C220.844 60.5335 225.865 64.3516 227.371 70.5485H231.316C229.595 62.5367 223.139 57.5288 213.958 57.5288C209.081 57.5288 204.562 59.1563 201.191 62.0983C196.529 66.1669 196.457 70.1105 196.457 80.1882C196.457 90.2032 196.529 94.2095 201.191 98.2782C204.562 101.22 209.081 102.848 213.958 102.848C222.996 102.848 229.595 97.8397 231.316 89.8279Z" fill="#00A859"/>
<path d="M298.004 102.472H301.877V57.9043H298.004V78.4978H271.393V57.9043H267.521V102.472H271.393V81.5025H298.004V102.472Z" fill="#00A859"/>
<path d="M370.644 102.472H375.163L362.826 81.8782C369.999 80.8139 374.589 76.5574 374.589 69.8601C374.589 62.0981 368.278 57.9043 359.957 57.9043H340.52V102.472H344.392V81.9406H358.451L370.644 102.472ZM370.716 69.9224C370.716 76.1194 366.054 78.9362 359.455 78.9362H344.392V60.909H359.455C366.054 60.909 370.716 63.7255 370.716 69.9224Z" fill="#00A859"/>
<path d="M443.501 80.1882C443.501 70.1105 443.429 66.1669 438.766 62.0983C435.395 59.1563 430.877 57.5288 425.999 57.5288C421.122 57.5288 416.603 59.1563 413.232 62.0983C408.57 66.1669 408.498 70.1105 408.498 80.1882C408.498 90.2032 408.57 94.2095 413.232 98.2782C416.603 101.22 421.122 102.848 425.999 102.848C430.877 102.848 435.395 101.22 438.766 98.2782C443.429 94.2095 443.501 90.2032 443.501 80.1882ZM439.627 80.1882C439.627 89.7028 439.34 93.2079 435.683 96.4001C433.1 98.6535 429.657 99.8429 425.999 99.8429C422.341 99.8429 418.899 98.6535 416.316 96.4001C412.658 93.2079 412.371 89.7028 412.371 80.1882C412.371 70.674 412.658 67.1685 416.316 63.9763C418.899 61.7229 422.341 60.5335 425.999 60.5335C429.657 60.5335 433.1 61.7229 435.683 63.9763C439.34 67.1685 439.627 70.674 439.627 80.1882Z" fill="#00A859"/>
<path d="M513.487 102.472H517.36V57.9043H513.487V96.5254L484.008 57.9043H480.135V102.472H484.008V63.7255L513.487 102.472Z" fill="#00A859"/>
<path d="M556.003 102.472H559.876V57.9043H556.003V102.472Z" fill="#00A859"/>
<path d="M631.369 89.8279H627.567C626.061 96.0248 620.897 99.8429 614.011 99.8429C610.353 99.8429 606.91 98.6535 604.328 96.4001C600.67 93.2079 600.383 89.7028 600.383 80.1882C600.383 70.674 600.67 67.1685 604.328 63.9763C606.91 61.7229 610.353 60.5335 614.011 60.5335C620.897 60.5335 625.918 64.3516 627.424 70.5485H631.369C629.648 62.5367 623.192 57.5288 614.011 57.5288C609.134 57.5288 604.615 59.1563 601.244 62.0983C596.582 66.1669 596.51 70.1105 596.51 80.1882C596.51 90.2032 596.582 94.2095 601.244 98.2782C604.615 101.22 609.134 102.848 614.011 102.848C623.049 102.848 629.648 97.8397 631.369 89.8279Z" fill="#00A859"/>
<path d="M667.573 102.472H698.559V99.467H671.446V57.9043H667.573V102.472Z" fill="#00A859"/>
<path d="M731.463 102.472H762.448V99.467H735.336V81.5025H758.432V78.4978H735.336V60.909H762.448V57.9043H731.463V102.472Z" fill="#00A859"/>
</svg>
