<svg width="64" height="64" viewBox="0 0 64 64" fill="none" xmlns="http://www.w3.org/2000/svg">
<path d="M38.4001 55.3337H25.6001C13.8934 55.3337 8.66675 50.107 8.66675 38.4003V25.6003C8.66675 13.8937 13.8934 8.66699 25.6001 8.66699H38.4001C50.1067 8.66699 55.3334 13.8937 55.3334 25.6003V38.4003C55.3334 50.107 50.1067 55.3337 38.4001 55.3337ZM25.6001 12.667C16.0534 12.667 12.6667 16.0537 12.6667 25.6003V38.4003C12.6667 47.947 16.0534 51.3337 25.6001 51.3337H38.4001C47.9467 51.3337 51.3334 47.947 51.3334 38.4003V25.6003C51.3334 16.0537 47.9467 12.667 38.4001 12.667H25.6001Z" fill="#F9FAFF"/>
<path d="M36.0001 47.3337H28.0001C20.2667 47.3337 16.6667 43.7337 16.6667 36.0003V28.0003C16.6667 20.267 20.2667 16.667 28.0001 16.667H36.0001C43.7334 16.667 47.3334 20.267 47.3334 28.0003V36.0003C47.3334 43.7337 43.7334 47.3337 36.0001 47.3337ZM28.0001 20.667C22.4534 20.667 20.6667 22.4537 20.6667 28.0003V36.0003C20.6667 41.547 22.4534 43.3337 28.0001 43.3337H36.0001C41.5467 43.3337 43.3334 41.547 43.3334 36.0003V28.0003C43.3334 22.4537 41.5467 20.667 36.0001 20.667H28.0001Z" fill="#F9FAFF"/>
<path d="M21.3594 12.6663C20.2394 12.6663 19.3594 11.7597 19.3594 10.6663V5.33301C19.3594 4.23967 20.266 3.33301 21.3594 3.33301C22.4527 3.33301 23.3594 4.23967 23.3594 5.33301V10.6663C23.3594 11.7597 22.4527 12.6663 21.3594 12.6663Z" fill="#F9FAFF"/>
<path d="M32 12.6663C30.9067 12.6663 30 11.7597 30 10.6663V5.33301C30 4.23967 30.9067 3.33301 32 3.33301C33.0933 3.33301 34 4.23967 34 5.33301V10.6663C34 11.7597 33.0933 12.6663 32 12.6663Z" fill="#F9FAFF"/>
<path d="M42.6667 12.6663C41.5734 12.6663 40.6667 11.7597 40.6667 10.6663V5.33301C40.6667 4.23967 41.5734 3.33301 42.6667 3.33301C43.7601 3.33301 44.6667 4.23967 44.6667 5.33301V10.6663C44.6667 11.7597 43.7601 12.6663 42.6667 12.6663Z" fill="#F9FAFF"/>
<path d="M58.6666 23.333H53.3333C52.2399 23.333 51.3333 22.4263 51.3333 21.333C51.3333 20.2397 52.2399 19.333 53.3333 19.333H58.6666C59.7599 19.333 60.6666 20.2397 60.6666 21.333C60.6666 22.4263 59.7866 23.333 58.6666 23.333Z" fill="#F9FAFF"/>
<path d="M58.6667 34H53.3333C52.24 34 51.3333 33.0933 51.3333 32C51.3333 30.9067 52.24 30 53.3333 30H58.6667C59.76 30 60.6667 30.9067 60.6667 32C60.6667 33.0933 59.7867 34 58.6667 34Z" fill="#F9FAFF"/>
<path d="M58.6666 44.667H53.3333C52.2399 44.667 51.3333 43.7603 51.3333 42.667C51.3333 41.5737 52.2399 40.667 53.3333 40.667H58.6666C59.7599 40.667 60.6666 41.5737 60.6666 42.667C60.6666 43.7603 59.7866 44.667 58.6666 44.667Z" fill="#F9FAFF"/>
<path d="M42.6667 60.6663C41.5734 60.6663 40.6667 59.7597 40.6667 58.6663V53.333C40.6667 52.2397 41.5734 51.333 42.6667 51.333C43.7601 51.333 44.6667 52.2397 44.6667 53.333V58.6663C44.6667 59.7597 43.7601 60.6663 42.6667 60.6663Z" fill="#F9FAFF"/>
<path d="M32.0261 60.6663C30.9328 60.6663 30.0261 59.7597 30.0261 58.6663V53.333C30.0261 52.2397 30.9328 51.333 32.0261 51.333C33.1195 51.333 34.0261 52.2397 34.0261 53.333V58.6663C34.0261 59.7597 33.1195 60.6663 32.0261 60.6663Z" fill="#F9FAFF"/>
<path d="M21.3594 60.6663C20.266 60.6663 19.3594 59.7597 19.3594 58.6663V53.333C19.3594 52.2397 20.266 51.333 21.3594 51.333C22.4527 51.333 23.3594 52.2397 23.3594 53.333V58.6663C23.3594 59.7597 22.4527 60.6663 21.3594 60.6663Z" fill="#F9FAFF"/>
<path d="M10.6666 23.333H5.33325C4.23992 23.333 3.33325 22.453 3.33325 21.333C3.33325 20.213 4.23992 19.333 5.33325 19.333H10.6666C11.7599 19.333 12.6666 20.2397 12.6666 21.333C12.6666 22.4263 11.7866 23.333 10.6666 23.333Z" fill="#F9FAFF"/>
<path d="M10.6667 34H5.33333C4.24 34 3.33333 33.0933 3.33333 32C3.33333 30.9067 4.24 30 5.33333 30H10.6667C11.76 30 12.6667 30.9067 12.6667 32C12.6667 33.0933 11.7867 34 10.6667 34Z" fill="#F9FAFF"/>
<path d="M10.6666 44.667H5.33325C4.23992 44.667 3.33325 43.7603 3.33325 42.667C3.33325 41.5737 4.23992 40.667 5.33325 40.667H10.6666C11.7599 40.667 12.6666 41.5737 12.6666 42.667C12.6666 43.7603 11.7866 44.667 10.6666 44.667Z" fill="#F9FAFF"/>
</svg>
