<svg width="65" height="65" viewBox="0 0 65 65" fill="none" xmlns="http://www.w3.org/2000/svg">
<path d="M24.5 59.1663H40.5C53.8334 59.1663 59.1667 53.833 59.1667 40.4997V24.4997C59.1667 11.1663 53.8334 5.83301 40.5 5.83301H24.5C11.1667 5.83301 5.83337 11.1663 5.83337 24.4997V40.4997C5.83337 53.833 11.1667 59.1663 24.5 59.1663Z" stroke="#F9FAFF" stroke-width="4" stroke-linecap="round" stroke-linejoin="round"/>
<path d="M42.0197 49.8336V39.4336" stroke="#F9FAFF" stroke-width="4" stroke-miterlimit="10" stroke-linecap="round" stroke-linejoin="round"/>
<path d="M42.0198 20.367V15.167" stroke="#F9FAFF" stroke-width="4" stroke-miterlimit="10" stroke-linecap="round" stroke-linejoin="round"/>
<path d="M42.02 34.233C45.8491 34.233 48.9533 31.1287 48.9533 27.2997C48.9533 23.4704 45.8491 20.3662 42.02 20.3662C38.1907 20.3662 35.0867 23.4704 35.0867 27.2997C35.0867 31.1287 38.1907 34.233 42.02 34.233Z" stroke="#F9FAFF" stroke-width="4" stroke-miterlimit="10" stroke-linecap="round" stroke-linejoin="round"/>
<path d="M22.9801 49.8338V44.6338" stroke="#F9FAFF" stroke-width="4" stroke-miterlimit="10" stroke-linecap="round" stroke-linejoin="round"/>
<path d="M22.9801 25.567V15.167" stroke="#F9FAFF" stroke-width="4" stroke-miterlimit="10" stroke-linecap="round" stroke-linejoin="round"/>
<path d="M22.9798 44.6333C26.809 44.6333 29.9133 41.529 29.9133 37.6999C29.9133 33.8709 26.809 30.7666 22.9798 30.7666C19.1507 30.7666 16.0465 33.8709 16.0465 37.6999C16.0465 41.529 19.1507 44.6333 22.9798 44.6333Z" stroke="#F9FAFF" stroke-width="4" stroke-miterlimit="10" stroke-linecap="round" stroke-linejoin="round"/>
</svg>
