<svg width="59" height="54" viewBox="0 0 59 54" fill="none" xmlns="http://www.w3.org/2000/svg">
<path d="M16.5933 53.667C10.2466 53.667 5.04663 49.0537 5.04663 43.3737V37.9337C5.04663 36.8404 5.9533 35.9337 7.04663 35.9337C8.13996 35.9337 9.04663 36.8404 9.04663 37.9337C9.04663 41.267 12.2466 43.7737 16.5666 43.7737C20.8866 43.7737 24.1133 41.267 24.1133 37.9337C24.1133 36.8404 24.9933 35.9337 26.0866 35.9337C27.18 35.9337 28.0866 36.8404 28.0866 37.9337V43.3737C28.0866 49.0537 22.9133 53.667 16.54 53.667H16.5933ZM9.7133 45.9871C10.8866 48.1737 13.5266 49.667 16.5666 49.667C19.6066 49.667 22.2466 48.147 23.42 45.9871C21.5266 47.1337 19.1533 47.8004 16.54 47.8004C13.9266 47.8004 11.5533 47.1337 9.65996 45.9871H9.7133Z" fill="#F9FAFF"/>
<path d="M16.5934 40.4401C12.22 40.4401 8.30003 38.4401 6.35336 35.2667C5.50003 33.8801 5.04669 32.2534 5.04669 30.6001C5.04669 27.8001 6.24669 25.1867 8.48669 23.2401C12.8067 19.4534 20.22 19.4534 24.5667 23.2134C26.8067 25.1867 28.06 27.7734 28.06 30.5734C28.06 32.2267 27.6067 33.8534 26.7534 35.2401C24.8334 38.4134 20.9134 40.4134 16.54 40.4134L16.5934 40.4401ZM16.5934 24.3067C14.5134 24.3067 12.5934 25.0001 11.1534 26.2534C9.79336 27.4267 9.04669 28.9734 9.04669 30.6001C9.04669 31.5334 9.26003 32.3867 9.74003 33.1867C10.9667 35.2134 13.58 36.4401 16.5667 36.4401C19.5534 36.4401 22.14 35.1867 23.34 33.1867C23.82 32.4134 24.06 31.5067 24.06 30.5734C24.06 28.9467 23.3134 27.4001 21.9534 26.2001C20.54 24.9467 18.5934 24.2534 16.5134 24.2534L16.5934 24.3067Z" fill="#F9FAFF"/>
<path d="M16.5934 47.8C10.0067 47.8 5.04669 43.56 5.04669 37.96V30.6267C5.04669 24.9467 10.1934 20.3334 16.5667 20.3334C19.58 20.3334 22.46 21.3734 24.62 23.24C26.86 25.2134 28.1134 27.8267 28.1134 30.6267V37.96C28.1134 43.56 23.1534 47.8 16.5667 47.8H16.5934ZM16.5934 24.3334C12.4334 24.3334 9.04669 27.16 9.04669 30.6267V37.96C9.04669 41.2934 12.2467 43.8 16.5667 43.8C20.8867 43.8 24.1134 41.2934 24.1134 37.96V30.6267C24.1134 29 23.3667 27.4534 22.0067 26.2534C20.5667 25.0267 18.62 24.3334 16.54 24.3334H16.5934Z" fill="#F9FAFF"/>
<path d="M48.2467 32.4667C44.22 32.4667 40.8067 29.48 40.4867 25.64C40.2734 23.4267 41.0734 21.2667 42.6734 19.6933C44.0067 18.28 45.9 17.5333 47.9 17.5333H53.4734C56.1134 17.6133 58.14 19.6933 58.14 22.2533V27.7467C58.14 30.3067 56.1134 32.3867 53.5534 32.4667H48.2467ZM53.3934 21.5333H47.9267C46.9934 21.5333 46.14 21.88 45.5267 22.52C44.7534 23.2667 44.38 24.28 44.4867 25.2933C44.62 27.0533 46.3267 28.4667 48.2467 28.4667H53.4734C53.82 28.4667 54.14 28.1467 54.14 27.7467V22.2533C54.14 21.8533 53.82 21.56 53.3934 21.5333Z" fill="#F9FAFF"/>
<path d="M40.1667 49.6667H33.5C32.4067 49.6667 31.5 48.76 31.5 47.6667C31.5 46.5734 32.4067 45.6667 33.5 45.6667H40.1667C47.0467 45.6667 51.5 41.2134 51.5 34.3334V32.4667H48.2734C44.2467 32.4667 40.8333 29.48 40.5133 25.64C40.3 23.4267 41.1 21.2667 42.7 19.6934C44.0334 18.3067 45.9 17.5334 47.9 17.5334H51.4467V15.64C51.4467 9.40002 47.7933 5.08002 41.8733 4.38668C41.2333 4.28002 40.6467 4.28002 40.0867 4.28002H16.0867C15.4467 4.28002 14.8067 4.30668 14.1934 4.38668C8.32668 5.13335 4.72668 9.40002 4.72668 15.5867V20.92C4.72668 22.0134 3.82002 22.92 2.72668 22.92C1.63335 22.92 0.726685 22.0134 0.726685 20.92V15.5867C0.726685 7.37335 5.79335 1.42668 13.66 0.440018C14.38 0.333351 15.18 0.226685 16.0333 0.226685H40.0067C40.6467 0.226685 41.4733 0.253351 42.3267 0.386684C50.1933 1.29335 55.34 7.26669 55.34 15.56V19.4267C55.34 20.4934 54.4333 21.4 53.34 21.4H47.7934C46.86 21.4 46.0067 21.7467 45.3933 22.3867C44.62 23.1334 44.22 24.1467 44.3267 25.16C44.46 26.92 46.1667 28.3334 48.0867 28.3334H53.3134C54.4067 28.3334 55.3134 29.24 55.3134 30.3334V34.2C55.3134 43.3734 49.1534 49.5334 39.98 49.5334L40.1667 49.6667Z" fill="#F9FAFF"/>
</svg>
