<svg width="64" height="64" viewBox="0 0 64 64" fill="none" xmlns="http://www.w3.org/2000/svg">
<path d="M30.0001 21.333V34.6663C30.0001 35.7597 30.8801 36.6663 32.0001 36.6663C33.0934 36.6663 34.0001 35.7597 34.0001 34.6663V21.333C34.0001 20.213 33.0934 19.333 32.0001 19.333C30.8801 19.333 30.0001 20.213 30.0001 21.333Z" fill="#F9FAFF"/>
<path d="M32.0001 56.6667C20.2134 56.6667 10.6667 47.0933 10.6667 35.3333C10.6667 23.5467 20.2134 14 32.0001 14C43.7601 14 53.3334 23.5467 53.3334 35.3333C53.3334 36.4267 54.2134 37.3333 55.3334 37.3333C56.4268 37.3333 57.3334 36.4267 57.3334 35.3333C57.3334 21.3333 45.9734 10 32.0001 10C18.0001 10 6.66675 21.3333 6.66675 35.3333C6.66675 49.3067 18.0001 60.6667 32.0001 60.6667C33.0934 60.6667 34.0001 59.76 34.0001 58.6667C34.0001 57.5467 33.0934 56.6667 32.0001 56.6667Z" fill="#F9FAFF"/>
<path d="M24.0001 7.33301H40.0001C41.0934 7.33301 42.0001 6.42634 42.0001 5.33301C42.0001 4.21301 41.0934 3.33301 40.0001 3.33301H24.0001C22.8801 3.33301 22.0001 4.21301 22.0001 5.33301C22.0001 6.42634 22.8801 7.33301 24.0001 7.33301Z" fill="#F9FAFF"/>
<path d="M41.7334 49.333V46.2397C41.7334 43.9463 42.7734 43.333 44.7467 44.4797L47.4134 46.0263L50.0801 47.573C52.0534 48.7197 52.0534 49.9197 50.0534 51.0663L47.3867 52.5863L44.7201 54.133C42.7467 55.253 41.6801 54.6663 41.6801 52.373V49.253L41.7334 49.333ZM37.7334 49.333V52.453C37.7334 57.7863 42.1067 60.3197 46.7467 57.6263L49.3867 56.0797L52.0534 54.533C56.6667 51.8397 56.6667 46.7997 52.0534 44.1063L49.3601 42.533L46.6934 40.9863C42.0534 38.293 37.6534 40.7997 37.6534 46.1597V49.253L37.7334 49.333Z" fill="#F9FAFF"/>
</svg>
