<svg width="65" height="64" viewBox="0 0 65 64" fill="none" xmlns="http://www.w3.org/2000/svg">
<path d="M36.6867 59.6806C36.0734 59.6806 35.46 59.5739 34.8734 59.3606C32.8734 58.6139 31.5934 56.7473 31.5934 54.6139V37.4139H25.3533C23.3266 37.4139 21.5666 36.2673 20.7399 34.4273C19.9133 32.5873 20.2333 30.5073 21.5666 28.9873L41.7534 6.05383C43.1667 4.45383 45.3534 3.89383 47.3534 4.66716C49.3534 5.41383 50.6331 7.2805 50.6331 9.41383V26.6138H56.8734C58.9 26.6138 60.66 27.7606 61.4867 29.6006C62.3134 31.4406 61.9934 33.5206 60.66 35.0406L40.4734 57.9739C39.4867 59.0939 38.1 59.6806 36.6867 59.6806ZM45.5134 8.3205C45.2734 8.3205 44.98 8.4005 44.74 8.69383L24.5532 31.6539C24.1266 32.1339 24.2866 32.6139 24.3666 32.8006C24.4466 32.9873 24.7133 33.4406 25.3533 33.4406H33.5934C34.6867 33.4406 35.5934 34.3473 35.5934 35.4406V54.6406C35.5934 55.3073 36.0734 55.5739 36.2867 55.6539C36.5 55.7339 37.0331 55.8673 37.4598 55.3606L57.6467 32.4006C58.0734 31.9206 57.9134 31.4406 57.8334 31.2539C57.7534 31.0673 57.4867 30.6139 56.8467 30.6139H48.6067C47.5134 30.6139 46.6067 29.7073 46.6067 28.6139V9.41383C46.6067 8.74716 46.1267 8.4805 45.9134 8.4005C45.8334 8.34716 45.6734 8.3205 45.5134 8.3205Z" fill="#F9FAFF"/>
<path d="M23.1667 12.667H4.5C3.40667 12.667 2.5 11.7603 2.5 10.667C2.5 9.57366 3.40667 8.66699 4.5 8.66699H23.1667C24.26 8.66699 25.1667 9.57366 25.1667 10.667C25.1667 11.7603 24.26 12.667 23.1667 12.667Z" fill="#F9FAFF"/>
<path d="M20.5 55.333H4.5C3.40667 55.333 2.5 54.4263 2.5 53.333C2.5 52.2397 3.40667 51.333 4.5 51.333H20.5C21.5933 51.333 22.5 52.2397 22.5 53.333C22.5 54.4263 21.5933 55.333 20.5 55.333Z" fill="#F9FAFF"/>
<path d="M12.5 34H4.5C3.40667 34 2.5 33.0933 2.5 32C2.5 30.9067 3.40667 30 4.5 30H12.5C13.5933 30 14.5 30.9067 14.5 32C14.5 33.0933 13.5933 34 12.5 34Z" fill="#F9FAFF"/>
</svg>
