<svg width="64" height="64" viewBox="0 0 64 64" fill="none" xmlns="http://www.w3.org/2000/svg">
<path d="M39.9218 60.6663H23.9218C9.44179 60.6663 3.25513 54.4797 3.25513 39.9997V23.9997C3.25513 9.51967 9.44179 3.33301 23.9218 3.33301H29.2551C30.3485 3.33301 31.2551 4.23967 31.2551 5.33301C31.2551 6.42634 30.3485 7.33301 29.2551 7.33301H23.9218C11.6285 7.33301 7.25513 11.7063 7.25513 23.9997V39.9997C7.25513 52.293 11.6285 56.6663 23.9218 56.6663H39.9218C52.2151 56.6663 56.5885 52.293 56.5885 39.9997V34.6663C56.5885 33.573 57.4951 32.6663 58.5885 32.6663C59.6818 32.6663 60.5885 33.573 60.5885 34.6663V39.9997C60.5885 54.4797 54.4285 60.6663 39.9218 60.6663Z" fill="#F9FAFF"/>
<path d="M34.0789 40.6397C33.6789 40.6397 33.3056 40.5331 32.9589 40.2931C32.3989 39.9197 32.0789 39.3064 32.0789 38.6397C32.0789 38.3464 32.0523 38.0264 31.9989 37.7064C31.8123 36.2931 31.1723 35.0397 30.1056 33.9464C29.0123 32.8531 27.6789 32.1597 26.2123 31.9731C25.9989 31.9464 25.6523 31.9197 25.3323 31.9464C24.6656 31.9997 23.9989 31.7064 23.5989 31.1731C23.1989 30.6397 23.0923 29.9197 23.3056 29.2797C23.6256 28.3731 24.1323 27.5197 24.7189 26.8531L27.9989 22.7464C33.7056 15.6264 45.1989 7.09303 53.6789 3.70637C55.6256 2.9597 57.6789 3.38637 59.0923 4.7997C60.5589 6.26637 60.9856 8.34637 60.2123 10.2397C56.8256 18.693 48.2923 30.2131 41.1989 35.8931L37.0123 39.2531C36.1856 39.8397 35.5189 40.2397 34.8256 40.5064C34.5856 40.5864 34.3189 40.6397 34.0789 40.6397ZM28.5856 28.4531C30.2123 28.9864 31.6789 29.8931 32.9323 31.1197C34.1589 32.3464 35.0389 33.7597 35.5456 35.2797L38.6923 32.7464C45.3323 27.4131 53.3323 16.6397 56.5056 8.7197C56.7189 8.21303 56.4789 7.8397 56.2656 7.5997C56.1323 7.46637 55.7589 7.17303 55.1456 7.41303C47.2523 10.5864 36.4789 18.5864 31.1456 25.2264L28.5856 28.4531Z" fill="#F9FAFF"/>
<path d="M20.5359 50.0005C18.8293 50.0005 17.2026 49.3339 15.9759 48.1072C14.5626 46.6939 13.8693 44.7472 14.1093 42.7472L14.6693 37.5205C15.2559 32.1072 19.6559 28.1072 25.1759 28.0005C25.6026 27.9739 26.1359 28.0005 26.6426 28.0272C29.0693 28.3472 31.2293 29.4139 32.936 31.1472C34.6427 32.8539 35.6827 34.8805 35.976 37.1739C36.056 37.6805 36.0827 38.1872 36.0827 38.6672C36.0827 41.5739 34.9627 44.3205 32.9093 46.3739C31.2293 48.0539 29.0427 49.0939 26.5626 49.4139L21.2826 49.9739C21.0159 50.0005 20.7759 50.0005 20.5359 50.0005ZM25.6026 31.9739C25.5226 31.9739 25.4159 31.9739 25.3359 31.9739C22.2693 32.0539 19.0426 34.1072 18.6426 37.9472L18.0826 43.2005C18.0026 43.9739 18.2693 44.7472 18.8026 45.2805C19.3359 45.8139 20.0826 46.0805 20.8293 46.0005L26.0826 45.4405C27.6293 45.2539 29.016 44.5872 30.056 43.5472C31.336 42.2405 32.056 40.5339 32.056 38.6672C32.056 38.3739 32.0293 38.0539 31.976 37.7339C31.7893 36.3205 31.1493 35.0672 30.0827 33.9739C28.9893 32.8805 27.656 32.1872 26.1893 32.0005C26.0559 31.9739 25.8426 31.9739 25.6026 31.9739Z" fill="#F9FAFF"/>
<path d="M42.1848 33.9464C41.0915 33.9464 40.1848 33.0397 40.1848 31.9464C40.1848 27.4931 36.5581 23.8398 32.0781 23.8398C30.9848 23.8398 30.0781 22.9332 30.0781 21.8398C30.0781 20.7465 30.9848 19.8398 32.0781 19.8398C38.7448 19.8398 44.1848 25.2532 44.1848 31.9464C44.1848 33.0397 43.3048 33.9464 42.1848 33.9464Z" fill="#F9FAFF"/>
</svg>
