<svg width="177" height="28" viewBox="0 0 177 28" fill="none" xmlns="http://www.w3.org/2000/svg">
<path d="M32.3113 13.9C32.3113 12.1147 32.71 10.52 33.5073 9.116C34.322 7.69467 35.4226 6.594 36.8093 5.814C38.2133 5.01667 39.782 4.618 41.5153 4.618C43.5433 4.618 45.32 5.138 46.8453 6.178C48.3706 7.218 49.4366 8.65667 50.0433 10.494H45.8573C45.4413 9.62733 44.852 8.97733 44.0893 8.544C43.344 8.11067 42.4773 7.894 41.4893 7.894C40.432 7.894 39.4873 8.14533 38.6553 8.648C37.8406 9.13333 37.1993 9.82667 36.7313 10.728C36.2806 11.6293 36.0553 12.6867 36.0553 13.9C36.0553 15.096 36.2806 16.1533 36.7313 17.072C37.1993 17.9733 37.8406 18.6753 38.6553 19.178C39.4873 19.6633 40.432 19.906 41.4893 19.906C42.4773 19.906 43.344 19.6893 44.0893 19.256C44.852 18.8053 45.4413 18.1467 45.8573 17.28H50.0433C49.4366 19.1347 48.3706 20.582 46.8453 21.622C45.3373 22.6447 43.5606 23.156 41.5153 23.156C39.782 23.156 38.2133 22.766 36.8093 21.986C35.4226 21.1887 34.322 20.088 33.5073 18.684C32.71 17.28 32.3113 15.6853 32.3113 13.9ZM61.2643 8.388C62.3563 8.388 63.327 8.63067 64.1763 9.116C65.0257 9.584 65.6843 10.286 66.1523 11.222C66.6377 12.1407 66.8803 13.25 66.8803 14.55V23H63.2403V15.044C63.2403 13.9 62.9543 13.0247 62.3823 12.418C61.8103 11.794 61.0303 11.482 60.0423 11.482C59.037 11.482 58.2397 11.794 57.6503 12.418C57.0783 13.0247 56.7923 13.9 56.7923 15.044V23H53.1523V3.76H56.7923V10.39C57.2603 9.766 57.8843 9.28067 58.6643 8.934C59.4443 8.57 60.311 8.388 61.2643 8.388ZM73.9818 10.832C74.4498 10.0693 75.0565 9.47133 75.8018 9.038C76.5645 8.60467 77.4311 8.388 78.4018 8.388V12.21H77.4398C76.2958 12.21 75.4291 12.4787 74.8398 13.016C74.2678 13.5533 73.9818 14.4893 73.9818 15.824V23H70.3418V8.596H73.9818V10.832ZM87.2495 23.234C85.8628 23.234 84.6148 22.9307 83.5055 22.324C82.3962 21.7 81.5208 20.8247 80.8795 19.698C80.2555 18.5713 79.9435 17.2713 79.9435 15.798C79.9435 14.3247 80.2642 13.0247 80.9055 11.898C81.5642 10.7713 82.4568 9.90467 83.5835 9.298C84.7102 8.674 85.9668 8.362 87.3535 8.362C88.7402 8.362 89.9968 8.674 91.1235 9.298C92.2502 9.90467 93.1342 10.7713 93.7755 11.898C94.4342 13.0247 94.7635 14.3247 94.7635 15.798C94.7635 17.2713 94.4255 18.5713 93.7495 19.698C93.0908 20.8247 92.1895 21.7 91.0455 22.324C89.9188 22.9307 88.6535 23.234 87.2495 23.234ZM87.2495 20.062C87.9082 20.062 88.5235 19.906 89.0955 19.594C89.6848 19.2647 90.1528 18.7793 90.4995 18.138C90.8462 17.4967 91.0195 16.7167 91.0195 15.798C91.0195 14.4287 90.6555 13.38 89.9275 12.652C89.2168 11.9067 88.3415 11.534 87.3015 11.534C86.2615 11.534 85.3862 11.9067 84.6755 12.652C83.9822 13.38 83.6355 14.4287 83.6355 15.798C83.6355 17.1673 83.9735 18.2247 84.6495 18.97C85.3428 19.698 86.2095 20.062 87.2495 20.062ZM103.83 23.234C102.443 23.234 101.195 22.9307 100.086 22.324C98.9763 21.7 98.1009 20.8247 97.4596 19.698C96.8356 18.5713 96.5236 17.2713 96.5236 15.798C96.5236 14.3247 96.8443 13.0247 97.4856 11.898C98.1443 10.7713 99.0369 9.90467 100.164 9.298C101.29 8.674 102.547 8.362 103.934 8.362C105.32 8.362 106.577 8.674 107.704 9.298C108.83 9.90467 109.714 10.7713 110.356 11.898C111.014 13.0247 111.344 14.3247 111.344 15.798C111.344 17.2713 111.006 18.5713 110.33 19.698C109.671 20.8247 108.77 21.7 107.626 22.324C106.499 22.9307 105.234 23.234 103.83 23.234ZM103.83 20.062C104.488 20.062 105.104 19.906 105.676 19.594C106.265 19.2647 106.733 18.7793 107.08 18.138C107.426 17.4967 107.6 16.7167 107.6 15.798C107.6 14.4287 107.236 13.38 106.508 12.652C105.797 11.9067 104.922 11.534 103.882 11.534C102.842 11.534 101.966 11.9067 101.256 12.652C100.562 13.38 100.216 14.4287 100.216 15.798C100.216 17.1673 100.554 18.2247 101.23 18.97C101.923 19.698 102.79 20.062 103.83 20.062ZM121.996 8.388C123.712 8.388 125.098 8.934 126.156 10.026C127.213 11.1007 127.742 12.6087 127.742 14.55V23H124.102V15.044C124.102 13.9 123.816 13.0247 123.244 12.418C122.672 11.794 121.892 11.482 120.904 11.482C119.898 11.482 119.101 11.794 118.512 12.418C117.94 13.0247 117.654 13.9 117.654 15.044V23H114.014V8.596H117.654V10.39C118.139 9.766 118.754 9.28067 119.5 8.934C120.262 8.57 121.094 8.388 121.996 8.388ZM133.049 6.88C132.408 6.88 131.87 6.68067 131.437 6.282C131.021 5.866 130.813 5.35467 130.813 4.748C130.813 4.14133 131.021 3.63867 131.437 3.24C131.87 2.824 132.408 2.616 133.049 2.616C133.69 2.616 134.219 2.824 134.635 3.24C135.068 3.63867 135.285 4.14133 135.285 4.748C135.285 5.35467 135.068 5.866 134.635 6.282C134.219 6.68067 133.69 6.88 133.049 6.88ZM134.843 8.596V23H131.203V8.596H134.843ZM137.503 15.798C137.503 14.3073 137.807 13.0073 138.413 11.898C139.02 10.7713 139.861 9.90467 140.935 9.298C142.01 8.674 143.241 8.362 144.627 8.362C146.413 8.362 147.886 8.81267 149.047 9.714C150.226 10.598 151.015 11.846 151.413 13.458H147.487C147.279 12.834 146.924 12.3487 146.421 12.002C145.936 11.638 145.329 11.456 144.601 11.456C143.561 11.456 142.738 11.8373 142.131 12.6C141.525 13.3453 141.221 14.4113 141.221 15.798C141.221 17.1673 141.525 18.2333 142.131 18.996C142.738 19.7413 143.561 20.114 144.601 20.114C146.075 20.114 147.037 19.4553 147.487 18.138H151.413C151.015 19.698 150.226 20.9373 149.047 21.856C147.869 22.7747 146.395 23.234 144.627 23.234C143.241 23.234 142.01 22.9307 140.935 22.324C139.861 21.7 139.02 20.8333 138.413 19.724C137.807 18.5973 137.503 17.2887 137.503 15.798ZM157.72 3.76V23H154.08V3.76H157.72ZM174.706 15.486C174.706 16.006 174.672 16.474 174.602 16.89H164.072C164.159 17.93 164.523 18.7447 165.164 19.334C165.806 19.9233 166.594 20.218 167.53 20.218C168.882 20.218 169.844 19.6373 170.416 18.476H174.342C173.926 19.8627 173.129 21.0067 171.95 21.908C170.772 22.792 169.324 23.234 167.608 23.234C166.222 23.234 164.974 22.9307 163.864 22.324C162.772 21.7 161.914 20.8247 161.29 19.698C160.684 18.5713 160.38 17.2713 160.38 15.798C160.38 14.3073 160.684 12.9987 161.29 11.872C161.897 10.7453 162.746 9.87867 163.838 9.272C164.93 8.66533 166.187 8.362 167.608 8.362C168.978 8.362 170.2 8.65667 171.274 9.246C172.366 9.83533 173.207 10.676 173.796 11.768C174.403 12.8427 174.706 14.082 174.706 15.486ZM170.936 14.446C170.919 13.51 170.581 12.7647 169.922 12.21C169.264 11.638 168.458 11.352 167.504 11.352C166.603 11.352 165.84 11.6293 165.216 12.184C164.61 12.7213 164.237 13.4753 164.098 14.446H170.936Z" fill="#39B660"/>
<path d="M9.44379 2.17777C7.60395 2.59141 5.00281 3.86415 4.05117 4.88235L3.28986 5.67781L6.04961 8.50966C7.57223 10.037 8.99969 11.8188 9.25346 12.3915C9.53896 13.1234 9.79273 15.4461 9.95133 19.2007C10.0782 22.7962 10.3003 25.0235 10.5223 25.1508C10.9664 25.469 12.6794 25.469 13.1552 25.1508C13.409 24.9917 13.5358 23.1462 13.631 19.3598C13.7262 14.1734 13.7896 13.6961 14.5192 12.2643C14.9316 11.4051 16.4225 9.62331 17.8817 8.2233L20.5145 5.70963L19.4994 4.85053C16.93 2.65505 12.6476 1.5414 9.44379 2.17777ZM13.7262 4.88235C14.9633 5.07326 17.4693 6.346 17.8499 6.95055C18.072 7.33237 14.995 9.40058 13.7262 9.68695C12.2035 10.037 12.1401 10.2279 12.2987 12.837C12.4256 14.587 12.3622 15.3825 12.0449 15.6052C11.3788 16.1779 11.1885 15.6052 11.1885 12.7733V10.0688L10.0148 9.68695C9.38035 9.4324 8.1115 8.79603 7.2233 8.2233C5.44691 7.07783 5.47863 6.75964 7.35018 5.77327C8.52387 5.13689 11.3153 4.43689 11.9815 4.56416C12.2353 4.6278 13.0283 4.75507 13.7262 4.88235Z" fill="#39B660"/>
<path d="M1.89429 7.55541C1.51363 8.25542 0.974368 9.36907 0.752319 10.0691L0.308221 11.31L2.05289 13.0282C4.01962 14.9691 4.87609 16.4646 5.1933 18.4692C5.41535 19.7419 5.38363 19.8056 4.87609 19.3919C4.55888 19.1374 3.89273 18.0555 3.35347 17.0055C2.8142 15.9555 1.89429 14.4282 1.25986 13.6328L0.181335 12.2009L0.308221 14.46C0.498549 17.0373 1.48191 19.551 3.06798 21.3328C4.20994 22.6692 6.65248 24.292 7.95306 24.6102L8.80953 24.8329L8.77781 21.0783C8.74609 16.2101 8.49232 14.46 7.79445 14.3328C7.31863 14.2373 7.28691 14.4282 7.44552 15.9237C7.63585 17.4828 7.60412 17.5783 7.1283 17.1646C6.81109 16.9101 6.58904 16.2737 6.58904 15.5419C6.58904 14.4282 6.5256 14.3328 5.51052 14.1737C3.98789 13.9191 2.78248 13.06 2.78248 12.2009C2.78248 11.8191 3.19486 10.7054 3.67068 9.71907L4.5906 7.93723L3.73412 7.10995C3.29002 6.66449 2.84593 6.31449 2.75076 6.31449C2.6556 6.31449 2.27494 6.88722 1.89429 7.55541Z" fill="#39B660"/>
<path d="M19.9119 7.42762L19.1506 8.22309L19.8167 9.59128C20.1657 10.3231 20.5463 11.3731 20.6732 11.914C20.8635 12.805 20.8001 12.9959 19.8167 13.6004C19.214 13.9504 18.3576 14.2686 17.8817 14.2686C17.1204 14.2686 17.057 14.3641 17.057 15.6686C17.057 16.4641 16.8984 17.1959 16.7398 17.2914C16.2322 17.6096 16.0419 16.655 16.3591 15.4141C16.6446 14.3959 16.6129 14.2686 16.1053 14.2686C15.6612 14.2686 15.4392 14.5868 15.2489 15.4459C14.9317 16.9096 14.8999 24.3233 15.2171 24.6096C15.5026 24.896 17.9135 23.6233 19.4678 22.3505C21.6883 20.5687 23.4012 16.7823 23.4012 13.8232L23.3695 12.5186L22.4496 13.6322C21.9421 14.2368 20.9904 15.7641 20.3877 17.0368C18.8968 19.996 18.3258 20.5369 18.5479 18.6596C18.8334 16.5277 19.3726 15.5095 21.3711 13.3459L23.2109 11.3413L22.6399 9.71856C22.0055 7.96854 21.2442 6.63216 20.8953 6.63216C20.7684 6.63216 20.3243 6.98216 19.9119 7.42762Z" fill="#39B660"/>
</svg>
