<svg width="104" height="18" viewBox="0 0 104 18" fill="none" xmlns="http://www.w3.org/2000/svg">
<path d="M6.55841 1.20055C1.15108 2.37411 -1.59715 8.30138 0.97282 13.1888C1.93841 15.0308 3.95874 16.6798 5.97906 17.2443C7.2269 17.6157 9.42548 17.5711 10.6882 17.1848C11.9657 16.7838 13.7038 15.6399 14.4763 14.704C15.0408 14.0058 15.5756 13.2333 15.5756 13.1145C15.5756 13.0699 15.1448 13.471 14.61 13.991C11.8023 16.7392 7.93996 16.8432 5.02832 14.2286C2.29494 11.7775 2.16124 7.33578 4.76092 4.60241C5.19172 4.1419 5.81565 3.6071 6.15732 3.41399C8.23706 2.19585 10.8367 2.13643 12.9908 3.25058C13.689 3.6071 14.9962 4.84009 15.4567 5.568C16.0212 6.45932 15.9915 6.22164 15.3973 5.16691C14.3426 3.26543 12.1143 1.67592 9.85629 1.20055C8.59359 0.933151 7.77655 0.933151 6.55841 1.20055Z" fill="#30AF5B"/>
<path d="M6.36519 5.67198C4.19631 7.70716 4.24088 11.0199 6.48403 13.0402C8.84602 15.1645 12.6638 14.392 14.1939 11.4804C14.5505 10.7971 14.6099 10.5445 14.6099 9.37095C14.6099 7.70716 14.2533 6.84555 13.1689 5.79082L12.4113 5.06291L12.8718 5.68684C13.57 6.59301 13.8374 7.32092 13.8374 8.40535C13.8523 10.1583 12.8421 11.6438 11.208 12.2529C9.67792 12.8174 8.25181 12.5648 7.03367 11.4953C6.1275 10.6931 5.74126 9.90574 5.65213 8.65789C5.563 7.41005 5.87496 6.53359 6.70686 5.62741C7.47933 4.78066 7.28621 4.81037 6.36519 5.67198Z" fill="#30AF5B"/>
<path d="M9.35121 6.48901C7.61314 6.8604 7.33089 9.44522 8.96497 10.1286C9.69288 10.4257 10.2574 10.3811 10.8367 9.99486C11.4458 9.57892 11.7132 9.10355 11.7132 8.36078C11.7132 7.09808 10.6139 6.22162 9.35121 6.48901Z" fill="#30AF5B"/>
<path d="M21.555 8.765C21.555 7.745 21.79 6.83 22.26 6.02C22.74 5.21 23.385 4.58 24.195 4.13C25.015 3.67 25.91 3.44 26.88 3.44C27.99 3.44 28.975 3.715 29.835 4.265C30.705 4.805 31.335 5.575 31.725 6.575H29.67C29.4 6.025 29.025 5.615 28.545 5.345C28.065 5.075 27.51 4.94 26.88 4.94C26.19 4.94 25.575 5.095 25.035 5.405C24.495 5.715 24.07 6.16 23.76 6.74C23.46 7.32 23.31 7.995 23.31 8.765C23.31 9.535 23.46 10.21 23.76 10.79C24.07 11.37 24.495 11.82 25.035 12.14C25.575 12.45 26.19 12.605 26.88 12.605C27.51 12.605 28.065 12.47 28.545 12.2C29.025 11.93 29.4 11.52 29.67 10.97H31.725C31.335 11.97 30.705 12.74 29.835 13.28C28.975 13.82 27.99 14.09 26.88 14.09C25.9 14.09 25.005 13.865 24.195 13.415C23.385 12.955 22.74 12.32 22.26 11.51C21.79 10.7 21.555 9.785 21.555 8.765ZM38.0016 5.6C38.6316 5.6 39.1916 5.735 39.6816 6.005C40.1816 6.275 40.5716 6.675 40.8516 7.205C41.1416 7.735 41.2866 8.375 41.2866 9.125V14H39.5916V9.38C39.5916 8.64 39.4066 8.075 39.0366 7.685C38.6666 7.285 38.1616 7.085 37.5216 7.085C36.8816 7.085 36.3716 7.285 35.9916 7.685C35.6216 8.075 35.4366 8.64 35.4366 9.38V14H33.7266V2.9H35.4366V6.695C35.7266 6.345 36.0916 6.075 36.5316 5.885C36.9816 5.695 37.4716 5.6 38.0016 5.6ZM45.1778 6.935C45.4278 6.515 45.7578 6.19 46.1678 5.96C46.5878 5.72 47.0828 5.6 47.6528 5.6V7.37H47.2178C46.5478 7.37 46.0378 7.54 45.6878 7.88C45.3478 8.22 45.1778 8.81 45.1778 9.65V14H43.4678V5.735H45.1778V6.935ZM52.8096 14.135C52.0296 14.135 51.3246 13.96 50.6946 13.61C50.0646 13.25 49.5696 12.75 49.2096 12.11C48.8496 11.46 48.6696 10.71 48.6696 9.86C48.6696 9.02 48.8546 8.275 49.2246 7.625C49.5946 6.975 50.0996 6.475 50.7396 6.125C51.3796 5.775 52.0946 5.6 52.8846 5.6C53.6746 5.6 54.3896 5.775 55.0296 6.125C55.6696 6.475 56.1746 6.975 56.5446 7.625C56.9146 8.275 57.0996 9.02 57.0996 9.86C57.0996 10.7 56.9096 11.445 56.5296 12.095C56.1496 12.745 55.6296 13.25 54.9696 13.61C54.3196 13.96 53.5996 14.135 52.8096 14.135ZM52.8096 12.65C53.2496 12.65 53.6596 12.545 54.0396 12.335C54.4296 12.125 54.7446 11.81 54.9846 11.39C55.2246 10.97 55.3446 10.46 55.3446 9.86C55.3446 9.26 55.2296 8.755 54.9996 8.345C54.7696 7.925 54.4646 7.61 54.0846 7.4C53.7046 7.19 53.2946 7.085 52.8546 7.085C52.4146 7.085 52.0046 7.19 51.6246 7.4C51.2546 7.61 50.9596 7.925 50.7396 8.345C50.5196 8.755 50.4096 9.26 50.4096 9.86C50.4096 10.75 50.6346 11.44 51.0846 11.93C51.5446 12.41 52.1196 12.65 52.8096 12.65ZM62.375 14.135C61.595 14.135 60.89 13.96 60.26 13.61C59.63 13.25 59.135 12.75 58.775 12.11C58.415 11.46 58.235 10.71 58.235 9.86C58.235 9.02 58.42 8.275 58.79 7.625C59.16 6.975 59.665 6.475 60.305 6.125C60.945 5.775 61.66 5.6 62.45 5.6C63.24 5.6 63.955 5.775 64.595 6.125C65.235 6.475 65.74 6.975 66.11 7.625C66.48 8.275 66.665 9.02 66.665 9.86C66.665 10.7 66.475 11.445 66.095 12.095C65.715 12.745 65.195 13.25 64.535 13.61C63.885 13.96 63.165 14.135 62.375 14.135ZM62.375 12.65C62.815 12.65 63.225 12.545 63.605 12.335C63.995 12.125 64.31 11.81 64.55 11.39C64.79 10.97 64.91 10.46 64.91 9.86C64.91 9.26 64.795 8.755 64.565 8.345C64.335 7.925 64.03 7.61 63.65 7.4C63.27 7.19 62.86 7.085 62.42 7.085C61.98 7.085 61.57 7.19 61.19 7.4C60.82 7.61 60.525 7.925 60.305 8.345C60.085 8.755 59.975 9.26 59.975 9.86C59.975 10.75 60.2 11.44 60.65 11.93C61.11 12.41 61.685 12.65 62.375 12.65ZM72.5255 5.6C73.1755 5.6 73.7555 5.735 74.2655 6.005C74.7855 6.275 75.1905 6.675 75.4805 7.205C75.7705 7.735 75.9155 8.375 75.9155 9.125V14H74.2205V9.38C74.2205 8.64 74.0355 8.075 73.6655 7.685C73.2955 7.285 72.7905 7.085 72.1505 7.085C71.5105 7.085 71.0005 7.285 70.6205 7.685C70.2505 8.075 70.0655 8.64 70.0655 9.38V14H68.3555V5.735H70.0655V6.68C70.3455 6.34 70.7005 6.075 71.1305 5.885C71.5705 5.695 72.0355 5.6 72.5255 5.6ZM78.9667 4.64C78.6567 4.64 78.3967 4.535 78.1867 4.325C77.9767 4.115 77.8717 3.855 77.8717 3.545C77.8717 3.235 77.9767 2.975 78.1867 2.765C78.3967 2.555 78.6567 2.45 78.9667 2.45C79.2667 2.45 79.5217 2.555 79.7317 2.765C79.9417 2.975 80.0467 3.235 80.0467 3.545C80.0467 3.855 79.9417 4.115 79.7317 4.325C79.5217 4.535 79.2667 4.64 78.9667 4.64ZM79.8067 5.735V14H78.0967V5.735H79.8067ZM81.4818 9.86C81.4818 9.01 81.6518 8.265 81.9918 7.625C82.3418 6.975 82.8218 6.475 83.4318 6.125C84.0418 5.775 84.7418 5.6 85.5318 5.6C86.5318 5.6 87.3568 5.84 88.0068 6.32C88.6668 6.79 89.1118 7.465 89.3418 8.345H87.4968C87.3468 7.935 87.1068 7.615 86.7768 7.385C86.4468 7.155 86.0318 7.04 85.5318 7.04C84.8318 7.04 84.2718 7.29 83.8518 7.79C83.4418 8.28 83.2368 8.97 83.2368 9.86C83.2368 10.75 83.4418 11.445 83.8518 11.945C84.2718 12.445 84.8318 12.695 85.5318 12.695C86.5218 12.695 87.1768 12.26 87.4968 11.39H89.3418C89.1018 12.23 88.6518 12.9 87.9918 13.4C87.3318 13.89 86.5118 14.135 85.5318 14.135C84.7418 14.135 84.0418 13.96 83.4318 13.61C82.8218 13.25 82.3418 12.75 81.9918 12.11C81.6518 11.46 81.4818 10.71 81.4818 9.86ZM92.7559 2.9V14H91.0459V2.9H92.7559ZM102.576 9.665C102.576 9.975 102.556 10.255 102.516 10.505H96.201C96.251 11.165 96.496 11.695 96.936 12.095C97.376 12.495 97.916 12.695 98.556 12.695C99.476 12.695 100.126 12.31 100.506 11.54H102.351C102.101 12.3 101.646 12.925 100.986 13.415C100.336 13.895 99.526 14.135 98.556 14.135C97.766 14.135 97.056 13.96 96.426 13.61C95.806 13.25 95.316 12.75 94.956 12.11C94.606 11.46 94.431 10.71 94.431 9.86C94.431 9.01 94.601 8.265 94.941 7.625C95.291 6.975 95.776 6.475 96.396 6.125C97.026 5.775 97.746 5.6 98.556 5.6C99.336 5.6 100.031 5.77 100.641 6.11C101.251 6.45 101.726 6.93 102.066 7.55C102.406 8.16 102.576 8.865 102.576 9.665ZM100.791 9.125C100.781 8.495 100.556 7.99 100.116 7.61C99.676 7.23 99.131 7.04 98.481 7.04C97.891 7.04 97.386 7.23 96.966 7.61C96.546 7.98 96.296 8.485 96.216 9.125H100.791Z" fill="#30AF5B"/>
</svg>
